{
  "accessors": [
    {
      "bufferView": 0,
      "componentType": 5125,
      "count": 33684,
      "type": "SCALAR"
    },
    {
      "bufferView": 1,
      "componentType": 5126,
      "count": 6121,
      "max": [
        2.09759497642517,
        3.06436824798584,
        0.764226794242859
      ],
      "min": [
        -2.09759497642517,
        -0.725744843482971,
        -2.77161550521851
      ],
      "type": "VEC3"
    },
    {
      "bufferView": 2,
      "componentType": 5126,
      "count": 6121,
      "type": "VEC3"
    },
    {
      "bufferView": 3,
      "componentType": 5126,
      "count": 6121,
      "type": "VEC4"
    },
    {
      "bufferView": 4,
      "componentType": 5126,
      "count": 6121,
      "type": "VEC2"
    }
  ],
  "asset": {
    "generator": "Adobe Substance 3D Painter 9.1.2",
    "version": "2.0"
  },
  "bufferViews": [
    {
      "buffer": 0,
      "byteLength": 134736,
      "target": 34963
    },
    {
      "buffer": 0,
      "byteLength": 73452,
      "byteOffset": 134736,
      "target": 34962
    },
    {
      "buffer": 0,
      "byteLength": 73452,
      "byteOffset": 208188,
      "target": 34962
    },
    {
      "buffer": 0,
      "byteLength": 97936,
      "byteOffset": 281640,
      "target": 34962
    },
    {
      "buffer": 0,
      "byteLength": 48968,
      "byteOffset": 379576,
      "target": 34962
    }
  ],
  "buffers": [
    {
      "byteLength": 428544,
      "uri": "korova.bin"
    }
  ],
  "images": [
    {
      "uri": "korova4_baseColor.png"
    },
    {
      "uri": "korova4_occlusionRoughnessMetallic.png"
    },
    {
      "uri": "korova4_normal.png"
    },
    {
      "uri": "korova4_emissive.png"
    }
  ],
  "materials": [
    {
      "alphaMode": "BLEND",
      "emissiveFactor": [
        1.0,
        1.0,
        1.0
      ],
      "emissiveTexture": {
        "index": 3
      },
      "name": "korova4",
      "normalTexture": {
        "index": 2
      },
      "occlusionTexture": {
        "index": 1
      },
      "pbrMetallicRoughness": {
        "baseColorTexture": {
          "index": 0
        },
        "metallicRoughnessTexture": {
          "index": 1
        }
      }
    }
  ],
  "meshes": [
    {
      "name": "korova3_ZBrushPolyMesh3D",
      "primitives": [
        {
          "attributes": {
            "NORMAL": 2,
            "POSITION": 1,
            "TANGENT": 3,
            "TEXCOORD_0": 4
          },
          "indices": 0,
          "material": 0,
          "mode": 4
        }
      ]
    }
  ],
  "nodes": [
    {
      "children": [
        1
      ],
      "name": "RootNode",
      "scale": [
        0.00999999977648258,
        0.00999999977648258,
        0.00999999977648258
      ]
    },
    {
      "children": [
        2
      ],
      "name": "korova3_ZBrushPolyMesh3D"
    },
    {
      "mesh": 0,
      "name": "korova3_ZBrushPolyMesh3D"
    }
  ],
  "samplers": [
    {
      "magFilter": 9729,
      "minFilter": 9985,
      "wrapS": 10497,
      "wrapT": 10497
    }
  ],
  "scene": 0,
  "scenes": [
    {
      "name": "Scene",
      "nodes": [
        0
      ]
    }
  ],
  "textures": [
    {
      "sampler": 0,
      "source": 0
    },
    {
      "sampler": 0,
      "source": 1
    },
    {
      "sampler": 0,
      "source": 2
    },
    {
      "sampler": 0,
      "source": 3
    }
  ]
}