<svg xmlns="http://www.w3.org/2000/svg" width="95" height="25" fill="none"><g fill="#fff" clip-path="url(#a)"><path d="M7.866 12.064H0l8.276-3.833L12.106 0l.01 7.82a4.248 4.248 0 0 1-4.253 4.247l.003-.003ZM17.208 12.064h7.867l-8.276-3.833L12.968 0l-.009 7.82a4.248 4.248 0 0 0 4.253 4.247l-.004-.003ZM17.208 12.936h7.867l-8.276 3.833L12.968 25l-.009-7.82a4.248 4.248 0 0 1 4.253-4.247l-.004.003ZM7.866 12.936H0l8.276 3.833L12.106 25l.01-7.82a4.248 4.248 0 0 0-4.253-4.247l.003.003ZM38.778 17.97v2.578h-9.393V4.152h2.701V17.97h6.692ZM40.537 15.11V4.153h2.701v10.797c0 1.92 1.103 3.28 3.521 3.28s3.524-1.358 3.524-3.28V4.152h2.701v10.962c0 3.536-2.629 5.738-6.222 5.738-3.593 0-6.222-2.202-6.222-5.738l-.003-.003ZM71.768 20.545h-2.701V8.86l-5.003 8.243h-.328l-5.002-8.267v11.71h-2.702V4.152h2.912L63.9 12.35l4.978-8.198h2.888v16.396l.003-.003ZM77.668 4.152v16.396h-2.702V4.152h2.702ZM90.937 17.244h-6.996l-1.15 3.301h-2.936L85.817 4.15h3.241L95 20.545h-2.912l-1.15-3.301Zm-.89-2.53L87.44 7.312l-2.605 7.402h5.213-.003Z"/></g><defs><clipPath id="a"><path fill="#fff" d="M0 0h95v25H0z"/></clipPath></defs></svg>