<svg width="192" height="51" viewBox="0 0 192 51" fill="none" xmlns="http://www.w3.org/2000/svg">
<path d="M0.32 41L9.344 17.672H15.104L24.128 41H18.752L13.216 25.768C13.024 25.2133 12.832 24.6373 12.64 24.04C12.448 23.4427 12.2347 22.7387 12 21.928H12.384C12.1707 22.7387 11.9573 23.4427 11.744 24.04C11.552 24.6373 11.3493 25.2133 11.136 25.768L5.536 41H0.32ZM6.848 36.168L8.384 32.008H15.936L17.472 36.168H6.848ZM25.0165 41V17.672H41.7845V21.96H30.0725V41H25.0165ZM29.5605 31.624V27.336H40.0885V31.624H29.5605ZM49.5165 41V21.448H54.5725V41H49.5165ZM42.1245 21.96V17.672H61.9005V21.96H42.1245ZM63.0665 41V17.672H79.9305V21.896H68.1225V36.712H80.8905V41H63.0665ZM67.6105 31.208V27.048H78.5225V31.208H67.6105ZM82.3727 41V17.672H94.4367C95.9941 17.672 97.3381 17.928 98.4688 18.44C99.6207 18.952 100.506 19.688 101.125 20.648C101.743 21.5867 102.053 22.728 102.053 24.072C102.053 25.416 101.722 26.5787 101.061 27.56C100.399 28.52 99.4714 29.2027 98.2767 29.608C99.2794 29.8 100.026 30.0987 100.517 30.504C101.007 30.9093 101.327 31.4 101.477 31.976C101.626 32.552 101.701 33.224 101.701 33.992V39.368C101.701 39.624 101.733 39.88 101.797 40.136C101.882 40.3707 102.031 40.552 102.245 40.68V41H96.9967C96.8901 40.7653 96.8047 40.4987 96.7407 40.2C96.6767 39.9013 96.6447 39.496 96.6447 38.984V34.568C96.6447 33.7787 96.5167 33.1707 96.2607 32.744C96.0047 32.296 95.3967 32.072 94.4367 32.072H87.4287V41H82.3727ZM87.4287 27.976H93.3167C94.4474 27.976 95.3114 27.7093 95.9087 27.176C96.5061 26.6213 96.8047 25.8747 96.8047 24.936C96.8047 23.9333 96.4847 23.1867 95.8447 22.696C95.2261 22.184 94.4047 21.928 93.3807 21.928H87.4287V27.976ZM104.429 41V17.672H109.485V37.224L108.941 36.712H121.357V41H104.429ZM120.314 41L129.338 17.672H135.098L144.122 41H138.746L133.21 25.768C133.018 25.2133 132.826 24.6373 132.634 24.04C132.442 23.4427 132.228 22.7387 131.994 21.928H132.378C132.164 22.7387 131.951 23.4427 131.738 24.04C131.546 24.6373 131.343 25.2133 131.13 25.768L125.53 41H120.314ZM126.842 36.168L128.378 32.008H135.93L137.466 36.168H126.842ZM145.01 41V17.672H151.154L161.49 34.152H161.01V17.672H165.938V41H160.178L149.554 24.36H150.002V41H145.01ZM168.941 41V17.672H178.893C181.112 17.672 183.032 18.1413 184.653 19.08C186.296 19.9973 187.565 21.3307 188.461 23.08C189.357 24.808 189.805 26.8987 189.805 29.352C189.805 31.6773 189.379 33.7147 188.525 35.464C187.693 37.2133 186.456 38.5787 184.813 39.56C183.192 40.52 181.219 41 178.893 41H168.941ZM173.997 37.448L173.229 36.68H178.573C179.811 36.68 180.867 36.4133 181.741 35.88C182.637 35.3253 183.32 34.504 183.789 33.416C184.28 32.3067 184.525 30.92 184.525 29.256C184.525 27.784 184.301 26.504 183.853 25.416C183.427 24.328 182.776 23.4853 181.901 22.888C181.027 22.2907 179.917 21.992 178.573 21.992H173.229L173.997 21.224V37.448Z" fill="#15FAF8"/>
<rect x="191" y="49" width="2.00001" height="191" transform="rotate(90 191 49)" fill="#15FAF8"/>
<rect x="117" width="2" height="9" fill="#15FAF8"/>
<rect x="117" y="15" width="2" height="9" fill="#15FAF8"/>
<rect x="115" y="11" width="2" height="9" transform="rotate(90 115 11)" fill="#15FAF8"/>
<rect x="130" y="11" width="2" height="9" transform="rotate(90 130 11)" fill="#15FAF8"/>
</svg>
