<svg width="299" height="83" viewBox="0 0 299 83" fill="none" xmlns="http://www.w3.org/2000/svg">
<g filter="url(#filter0_b_26_82)">
<path d="M1 0.5V82H298V16H229L205 0.5H1Z" fill="#15FAF8" fill-opacity="0.13"/>
<path d="M1 0.5V82H298V16H229L205 0.5H1Z" stroke="url(#paint0_linear_26_82)"/>
</g>
<g opacity="0.3">
<rect x="14" y="9" width="1" height="4" fill="white"/>
<rect x="14" y="17" width="1" height="4" fill="white"/>
<rect x="13" y="14" width="1" height="4" transform="rotate(90 13 14)" fill="white"/>
<rect x="21" y="14" width="1" height="4" transform="rotate(90 21 14)" fill="white"/>
</g>
<g opacity="0.3">
<rect x="14" y="62" width="1" height="4" fill="white"/>
<rect x="14" y="70" width="1" height="4" fill="white"/>
<rect x="13" y="67" width="1" height="4" transform="rotate(90 13 67)" fill="white"/>
<rect x="21" y="67" width="1" height="4" transform="rotate(90 21 67)" fill="white"/>
</g>
<g opacity="0.3">
<rect x="283" y="26" width="1" height="4" fill="white"/>
<rect x="283" y="34" width="1" height="4" fill="white"/>
<rect x="282" y="31" width="1" height="4" transform="rotate(90 282 31)" fill="white"/>
<rect x="290" y="31" width="1" height="4" transform="rotate(90 290 31)" fill="white"/>
</g>
<g opacity="0.3">
<rect x="283" y="62" width="1" height="4" fill="white"/>
<rect x="283" y="70" width="1" height="4" fill="white"/>
<rect x="282" y="67" width="1" height="4" transform="rotate(90 282 67)" fill="white"/>
<rect x="290" y="67" width="1" height="4" transform="rotate(90 290 67)" fill="white"/>
</g>
<defs>
<filter id="filter0_b_26_82" x="-199.5" y="-200" width="698" height="482.5" filterUnits="userSpaceOnUse" color-interpolation-filters="sRGB">
<feFlood flood-opacity="0" result="BackgroundImageFix"/>
<feGaussianBlur in="BackgroundImageFix" stdDeviation="100"/>
<feComposite in2="SourceAlpha" operator="in" result="effect1_backgroundBlur_26_82"/>
<feBlend mode="normal" in="SourceGraphic" in2="effect1_backgroundBlur_26_82" result="shape"/>
</filter>
<linearGradient id="paint0_linear_26_82" x1="302.629" y1="-3.74648" x2="140.553" y2="106.009" gradientUnits="userSpaceOnUse">
<stop stop-color="#576E6F"/>
<stop offset="1" stop-color="#A6D4D5"/>
</linearGradient>
</defs>
</svg>
