<svg xmlns="http://www.w3.org/2000/svg" width="221" height="53" fill="none"><path fill="#15FAF8" d="M28.416 19.831v21.984h-9.408v-18.88H15.84v11.008L12 41.815H.128l11.008-21.984h17.28Zm23.537 0v7.84h-9.44v-4.736h-3.136v7.872h9.44v3.136h-9.44v7.872h-9.44V19.831h22.016Zm18.393 0v3.104H65.61v18.88h-9.44v-18.88h-4.704v-3.104h18.88Zm22.407 15.68v6.304H70.737V19.831h21.888v6.272h-9.312v-3.168h-3.136v6.208h9.44v3.168h-9.44v6.368h3.136v-3.168h9.44Zm22.769-2.784 4.481 9.088h-9.825l-3.872-8.256V22.935h-3.136v18.88h-9.44V19.831h16.961c4.896 0 7.647 2.144 7.647 6.944 0 3.328-1.439 5.312-2.816 5.952Zm26.526-.32v9.408h-21.824V19.831h9.44v18.848h3.136v-6.272h9.248Zm27.455-12.576v21.984h-9.408v-18.88h-3.168v11.008l-3.84 7.872h-11.872l11.008-21.984h17.28Zm25.105 6.272v15.712H184.24v-18.88h-3.168v18.88h-10.048V19.831h17.312c3.808 0 6.272 2.464 6.272 6.272Zm24.588 0v9.408c0 3.84-2.464 6.304-6.272 6.304h-17.312V19.831h17.312c3.808 0 6.272 2.464 6.272 6.272ZM205.66 38.679h3.168V22.935h-3.168v15.744ZM220 51v2H0v-2zM135 0h2v9h-2zM135 15h2v9h-2zM133 11v2h-9v-2zM148 11v2h-9v-2z"/></svg>